<?xml version="1.0" encoding="UTF-8"?>
<svg id="Layer_1" data-name="Layer 1" xmlns="http://www.w3.org/2000/svg" viewBox="0 0 800 527">
  <defs>
    <style>
      .cls-1 {
        fill: #003049;
      }
    </style>
  </defs>
  <path class="cls-1" d="m788,264.44c0,.47,0,.93-.04,1.4v.02c-.02.46-.05.92-.1,1.39v.03c-.09.92-.23,1.84-.41,2.76,0,.02,0,.05,0,.06-.09.44-.18.87-.29,1.32-.1.41-.21.8-.32,1.21-.03.09-.05.18-.08.28-.12.39-.24.77-.37,1.15-.12.34-.24.69-.39,1.03-.06.19-.14.38-.22.56-.14.34-.3.69-.45,1.04-.09.19-.18.39-.28.59-.09.19-.18.38-.29.57-.1.2-.21.41-.32.6-.17.32-.36.66-.56.98-.48.8-.99,1.58-1.55,2.34,0,0,0,.02-.02.03-.29.39-.59.77-.89,1.15-.32.39-.64.77-.97,1.14-.33.37-.68.73-1.04,1.09l-.3.3-228.52,228.52c-5.73,5.73-13.22,8.58-20.72,8.58s-15-2.86-20.72-8.58c-11.44-11.44-11.44-30,0-41.44l178.79-178.79H37.31c-16.19,0-29.31-13.12-29.31-29.31s13.12-29.31,29.31-29.31h650.64L507.8,54.98c-11.44-11.44-11.44-30,0-41.44,11.44-11.44,30-11.44,41.44,0l230.17,230.17c1.43,1.43,2.68,2.98,3.75,4.6.51.78.99,1.58,1.42,2.4.23.43.45.87.65,1.3.2.43.39.87.57,1.31s.35.88.51,1.33c.15.45.31.9.44,1.36.23.78.43,1.57.6,2.36.43,2,.64,4.03.64,6.07Z"/>
  <path class="cls-1" d="m782.34,281.75c.56-.77,1.07-1.54,1.55-2.34-.48.81-1,1.6-1.55,2.34Z"/>
  <path class="cls-1" d="m787.46,270.03c.18-.92.32-1.84.41-2.76-.09.92-.23,1.85-.41,2.76Z"/>
</svg>