<?xml version="1.0" encoding="UTF-8"?>
<svg id="Layer_1" data-name="Layer 1" xmlns="http://www.w3.org/2000/svg" viewBox="0 0 1245.52 337.16">
  <defs>
    <style>
      .cls-1 {
        fill: #761113;
      }

      .cls-2 {
        fill: #c12126;
      }

      .cls-3 {
        fill: #669bbc;
      }

      .cls-4 {
        fill: #003049;
      }
    </style>
  </defs>
  <g>
    <circle class="cls-4" cx="40.83" cy="136.17" r="12.04"/>
    <circle class="cls-3" cx="40.83" cy="95.18" r="16.91"/>
    <circle class="cls-3" cx="16.91" cy="170.78" r="16.91"/>
    <circle class="cls-3" cx="40.83" cy="248.27" r="16.91"/>
    <circle class="cls-3" cx="93.3" cy="300.73" r="16.91"/>
    <circle class="cls-3" cx="170.78" cy="320.24" r="16.91"/>
    <circle class="cls-3" cx="246.77" cy="302.23" r="16.91"/>
    <circle class="cls-3" cx="301.68" cy="247.32" r="16.91"/>
    <circle class="cls-3" cx="321.19" cy="173.69" r="16.91"/>
    <circle class="cls-3" cx="304.59" cy="97.07" r="16.91"/>
    <circle class="cls-3" cx="250.31" cy="38.78" r="16.91"/>
    <circle class="cls-3" cx="170.78" cy="16.91" r="16.91"/>
    <circle class="cls-3" cx="93.3" cy="38.78" r="16.91"/>
    <circle class="cls-4" cx="40.83" cy="206.02" r="12.04"/>
    <circle class="cls-4" cx="75.44" cy="265.57" r="12.04"/>
    <circle class="cls-4" cx="135.54" cy="300.73" r="12.04"/>
    <circle class="cls-4" cx="205.39" cy="300.73" r="12.04"/>
    <circle class="cls-4" cx="265.96" cy="266.04" r="12.04"/>
    <circle class="cls-4" cx="300.73" cy="206.02" r="12.04"/>
    <circle class="cls-4" cx="300.73" cy="136.17" r="12.04"/>
    <circle class="cls-4" cx="266.28" cy="75.83" r="12.04"/>
    <circle class="cls-4" cx="205.39" cy="40.83" r="12.04"/>
    <circle class="cls-4" cx="136.17" cy="40.83" r="12.04"/>
    <circle class="cls-4" cx="75.83" cy="75.83" r="12.04"/>
  </g>
  <g>
    <circle class="cls-1" cx="97.7" cy="155.21" r="6.84"/>
    <circle class="cls-2" cx="97.7" cy="131.84" r="9.6"/>
    <circle class="cls-2" cx="84.09" cy="174.95" r="9.6"/>
    <circle class="cls-2" cx="97.7" cy="219.08" r="9.6"/>
    <circle class="cls-2" cx="127.59" cy="248.97" r="9.6"/>
    <circle class="cls-2" cx="171.8" cy="260.06" r="9.6"/>
    <circle class="cls-2" cx="215.07" cy="249.84" r="9.6"/>
    <circle class="cls-2" cx="246.38" cy="218.53" r="9.6"/>
    <circle class="cls-2" cx="257.47" cy="176.52" r="9.6"/>
    <circle class="cls-2" cx="248.03" cy="132.94" r="9.6"/>
    <circle class="cls-2" cx="217.11" cy="99.67" r="9.6"/>
    <circle class="cls-2" cx="171.8" cy="87.24" r="9.6"/>
    <circle class="cls-2" cx="127.59" cy="99.67" r="9.6"/>
    <circle class="cls-1" cx="97.7" cy="195.01" r="6.84"/>
    <circle class="cls-1" cx="117.45" cy="228.91" r="6.84"/>
    <circle class="cls-1" cx="151.67" cy="248.97" r="6.84"/>
    <circle class="cls-1" cx="191.47" cy="248.97" r="6.84"/>
    <circle class="cls-1" cx="226" cy="229.23" r="6.84"/>
    <circle class="cls-1" cx="245.83" cy="195.01" r="6.84"/>
    <circle class="cls-1" cx="245.83" cy="155.21" r="6.84"/>
    <circle class="cls-1" cx="226.16" cy="120.83" r="6.84"/>
    <circle class="cls-1" cx="191.47" cy="100.85" r="6.84"/>
    <circle class="cls-1" cx="152.06" cy="100.85" r="6.84"/>
    <circle class="cls-1" cx="117.6" cy="120.83" r="6.84"/>
  </g>
  <g>
    <path class="cls-4" d="m447.94,159.2c-1.33-.65-3.07-1.38-5.25-2.19s-4.64-1.59-7.39-2.32c-2.75-.73-5.74-1.34-8.97-1.83-3.23-.49-6.54-.74-9.94-.74-2.72,0-5.04.09-6.95.25-1.92.17-3.53.39-4.84.66-1.31.27-2.34.59-3.11.94-.76.36-1.35.72-1.76,1.1-.41.37-.67.75-.79,1.12-.12.37-.18.71-.18,1.02,0,1.02.51,1.91,1.53,2.68,1.02.76,2.41,1.44,4.18,2.04,1.77.59,3.82,1.15,6.16,1.68,2.34.53,4.83,1.07,7.46,1.63,2.63.56,5.35,1.17,8.15,1.83,2.8.66,5.52,1.43,8.15,2.32,2.63.88,5.12,1.91,7.46,3.08,2.34,1.17,4.4,2.54,6.17,4.1,1.77,1.56,3.16,3.36,4.18,5.4,1.02,2.04,1.53,4.37,1.53,6.98,0,3.36-.59,6.25-1.78,8.66-1.19,2.41-2.78,4.45-4.76,6.11-1.99,1.66-4.29,3-6.9,4-2.62,1-5.36,1.77-8.23,2.32-2.87.54-5.77.9-8.71,1.07-2.94.17-5.73.25-8.38.25-6.93,0-13.34-.57-19.23-1.71-5.89-1.14-11.1-2.56-15.62-4.25v-16.71c4.65,2.58,9.96,4.6,15.92,6.06,5.96,1.46,12.34,2.19,19.13,2.19,4.01,0,7.28-.21,9.81-.64,2.53-.42,4.51-.97,5.94-1.63,1.43-.66,2.39-1.38,2.9-2.17.51-.78.76-1.53.76-2.24,0-1.12-.51-2.1-1.53-2.93-1.02-.83-2.41-1.56-4.18-2.19-1.77-.63-3.82-1.21-6.16-1.73-2.34-.53-4.83-1.05-7.46-1.58-2.63-.53-5.34-1.1-8.13-1.71-2.79-.61-5.5-1.33-8.13-2.17-2.63-.83-5.12-1.8-7.46-2.9-2.34-1.1-4.4-2.41-6.17-3.92-1.77-1.51-3.16-3.26-4.18-5.25-1.02-1.99-1.53-4.29-1.53-6.9,0-3.09.54-5.76,1.63-8s2.56-4.15,4.41-5.73c1.85-1.58,3.99-2.86,6.42-3.85,2.43-.98,4.98-1.75,7.67-2.29,2.68-.54,5.4-.92,8.15-1.12,2.75-.2,5.37-.31,7.85-.31,2.72,0,5.51.14,8.38.41,2.87.27,5.7.65,8.48,1.15,2.78.49,5.48,1.06,8.08,1.71,2.6.65,5,1.32,7.21,2.04v16.2Z"/>
    <path class="cls-4" d="m538.12,209.48c-.34-3.8-1.26-7.14-2.75-10.01-1.5-2.87-3.37-5.34-5.63-7.41-2.26-2.07-4.81-3.79-7.64-5.15-2.84-1.36-5.75-2.44-8.74-3.24-2.99-.8-5.97-1.36-8.94-1.68-2.97-.32-5.73-.48-8.28-.48h-5.6v27.97h-18.9v-70h18.9v27h3.87c2.62,0,5.35-.2,8.2-.61,2.85-.41,5.68-1.05,8.48-1.94,2.8-.88,5.49-2.02,8.08-3.41s4.89-3.09,6.93-5.1c2.04-2,3.74-4.32,5.09-6.95,1.36-2.63,2.21-5.63,2.55-8.99h19.26c-.34,3.7-1.08,7.05-2.22,10.04-1.14,2.99-2.55,5.66-4.23,8.02-1.68,2.36-3.56,4.42-5.63,6.19-2.07,1.77-4.2,3.29-6.37,4.56-2.17,1.27-4.34,2.33-6.5,3.16-2.16.83-4.17,1.47-6.04,1.91,2.38.37,4.85.96,7.41,1.76,2.56.8,5.1,1.85,7.62,3.16,2.51,1.31,4.92,2.91,7.21,4.81,2.29,1.9,4.36,4.13,6.19,6.67,1.83,2.55,3.36,5.45,4.59,8.71s2,6.93,2.34,11h-19.26Z"/>
    <path class="cls-4" d="m573.58,209.48v-70h18.9v70h-18.9Z"/>
    <path class="cls-4" d="m633.29,179.53c0,2.92.27,5.31.81,7.16.54,1.85,1.43,3.32,2.65,4.41s2.81,1.83,4.76,2.24c1.95.41,4.36.61,7.21.61h35.87v15.54h-39.74c-5.5,0-10.18-.45-14.04-1.35-3.85-.9-7-2.29-9.45-4.18-2.45-1.89-4.22-4.27-5.32-7.16-1.1-2.89-1.66-6.32-1.66-10.29v-47.02h18.9v40.04Z"/>
    <path class="cls-4" d="m718.63,179.53c0,2.92.27,5.31.81,7.16.54,1.85,1.43,3.32,2.65,4.41s2.81,1.83,4.76,2.24c1.95.41,4.36.61,7.21.61h35.87v15.54h-39.74c-5.5,0-10.18-.45-14.04-1.35-3.85-.9-7-2.29-9.45-4.18-2.45-1.89-4.22-4.27-5.32-7.16-1.1-2.89-1.66-6.32-1.66-10.29v-47.02h18.9v40.04Z"/>
    <path class="cls-4" d="m863.72,163.38c0,3.5-.51,6.72-1.53,9.65-1.02,2.94-2.66,5.47-4.92,7.59-2.26,2.12-5.19,3.78-8.79,4.97-3.6,1.19-7.98,1.78-13.14,1.78h-31.38v22.11h-18.9v-70h50.28c5.16,0,9.54.59,13.14,1.76,3.6,1.17,6.53,2.82,8.79,4.94,2.26,2.12,3.9,4.65,4.92,7.57,1.02,2.92,1.53,6.13,1.53,9.63Zm-19.11.31c0-1.63-.23-3.03-.69-4.2-.46-1.17-1.21-2.13-2.27-2.88-1.05-.75-2.43-1.3-4.13-1.66-1.7-.36-3.79-.53-6.27-.53h-27.31v18.03h27.31c2.48,0,4.57-.14,6.27-.43,1.7-.29,3.07-.78,4.13-1.48,1.05-.7,1.81-1.6,2.27-2.73.46-1.12.69-2.5.69-4.13Z"/>
    <path class="cls-4" d="m941.55,154.64c-.97-.29-2.1-.58-3.39-.87-1.29-.29-2.71-.53-4.25-.74-1.55-.2-3.13-.31-4.76-.31-3.4,0-6.56.42-9.5,1.25-2.94.83-5.68,1.94-8.23,3.31-2.55,1.38-4.92,2.94-7.11,4.69-2.19,1.75-4.2,3.54-6.04,5.37v42.13h-18.9v-70h18.9v11.36c2.27-1.7,4.61-3.34,7-4.92,2.39-1.58,4.89-2.98,7.49-4.2s5.34-2.2,8.23-2.93c2.89-.73,5.94-1.1,9.17-1.1,1.22,0,2.47.06,3.74.18,1.27.12,2.51.26,3.72.43,1.21.17,2.33.36,3.39.56s1.97.41,2.75.61v15.84c-.51-.17-1.25-.4-2.22-.69Z"/>
    <path class="cls-4" d="m1046.32,174.53c0,6.01-1.1,11.32-3.31,15.92-2.21,4.6-5.37,8.45-9.48,11.54-4.11,3.09-9.09,5.43-14.95,7-5.86,1.58-12.44,2.37-19.74,2.37s-13.9-.79-19.79-2.37c-5.89-1.58-10.91-3.91-15.05-7-4.14-3.09-7.34-6.94-9.58-11.54-2.24-4.6-3.36-9.91-3.36-15.92s1.12-11.32,3.36-15.92c2.24-4.6,5.43-8.45,9.58-11.54,4.14-3.09,9.16-5.43,15.05-7.01s12.49-2.37,19.79-2.37,13.88.79,19.74,2.37c5.86,1.58,10.84,3.92,14.95,7.01,4.11,3.09,7.27,6.94,9.48,11.54,2.21,4.6,3.31,9.91,3.31,15.92Zm-19.11,0c0-2.61-.42-5.22-1.25-7.82-.83-2.6-2.31-4.93-4.43-7-2.12-2.07-5.02-3.75-8.69-5.04-3.67-1.29-8.34-1.94-14.01-1.94-3.8,0-7.15.3-10.04.89-2.89.59-5.38,1.42-7.49,2.47-2.11,1.05-3.87,2.28-5.3,3.69-1.43,1.41-2.56,2.92-3.41,4.53-.85,1.61-1.45,3.29-1.81,5.04-.36,1.75-.54,3.47-.54,5.17s.18,3.48.54,5.25c.36,1.77.96,3.46,1.81,5.07.85,1.61,1.99,3.12,3.41,4.51s3.19,2.61,5.3,3.64c2.11,1.04,4.6,1.85,7.49,2.45,2.89.59,6.23.89,10.04.89,5.67,0,10.34-.64,14.01-1.94s6.56-2.97,8.69-5.04c2.12-2.07,3.6-4.41,4.43-7,.83-2.6,1.25-5.21,1.25-7.82Z"/>
    <path class="cls-4" d="m1154.12,174.53c0,6.01-1.1,11.32-3.31,15.92-2.21,4.6-5.37,8.45-9.48,11.54-4.11,3.09-9.09,5.43-14.95,7-5.86,1.58-12.44,2.37-19.74,2.37s-13.9-.79-19.79-2.37c-5.89-1.58-10.91-3.91-15.05-7-4.14-3.09-7.34-6.94-9.58-11.54-2.24-4.6-3.36-9.91-3.36-15.92s1.12-11.32,3.36-15.92c2.24-4.6,5.43-8.45,9.58-11.54,4.14-3.09,9.16-5.43,15.05-7.01s12.49-2.37,19.79-2.37,13.88.79,19.74,2.37c5.86,1.58,10.84,3.92,14.95,7.01,4.11,3.09,7.27,6.94,9.48,11.54,2.21,4.6,3.31,9.91,3.31,15.92Zm-19.11,0c0-2.61-.42-5.22-1.25-7.82-.83-2.6-2.31-4.93-4.43-7-2.12-2.07-5.02-3.75-8.69-5.04-3.67-1.29-8.34-1.94-14.01-1.94-3.8,0-7.15.3-10.04.89-2.89.59-5.38,1.42-7.49,2.47-2.11,1.05-3.87,2.28-5.3,3.69-1.43,1.41-2.56,2.92-3.41,4.53-.85,1.61-1.45,3.29-1.81,5.04-.36,1.75-.54,3.47-.54,5.17s.18,3.48.54,5.25c.36,1.77.96,3.46,1.81,5.07.85,1.61,1.99,3.12,3.41,4.51s3.19,2.61,5.3,3.64c2.11,1.04,4.6,1.85,7.49,2.45,2.89.59,6.23.89,10.04.89,5.67,0,10.34-.64,14.01-1.94s6.56-2.97,8.69-5.04c2.12-2.07,3.6-4.41,4.43-7,.83-2.6,1.25-5.21,1.25-7.82Z"/>
    <path class="cls-4" d="m1204.41,154.41c-2.21,0-4.19.08-5.94.25-1.75.17-3.24.58-4.46,1.22-1.22.65-2.16,1.6-2.8,2.88-.65,1.27-.97,3.01-.97,5.22v2.6h52.78v14.93h-52.78v27.97h-18.9v-47.07c0-3.6.53-6.83,1.6-9.68,1.07-2.85,2.86-5.26,5.38-7.21,2.51-1.95,5.84-3.45,9.99-4.48,4.14-1.04,9.31-1.55,15.49-1.55h41.73v14.93h-41.11Z"/>
  </g>
</svg>