<?xml version="1.0" encoding="UTF-8"?>
<svg id="Layer_1" data-name="Layer 1" xmlns="http://www.w3.org/2000/svg" viewBox="0 0 666.6 666.7">
  <defs>
    <style>
      .cls-1 {
        fill: #fdf0d5;
      }

      .cls-2 {
        fill: #003049;
      }
    </style>
  </defs>
  <g id="SVGRepo_iconCarrier" data-name="SVGRepo iconCarrier">
    <path class="cls-1" d="m333.3,666.7c184.1,0,333.3-149.2,333.3-333.3S517.4,0,333.3,0,0,149.2,0,333.3s149.2,333.4,333.3,333.4Z"/>
    <path class="cls-2" d="m333.3,164.3c-69,0-125,56-125,125s53,122.7,123.3,124.7h6c67.3-2.3,120.3-57,120.7-124.7,0-69-56-125-125-125Z"/>
    <path class="cls-2" d="m559.3,578.3c-59.3,54.7-138.7,88.3-226,88.3s-166.6-33.6-226-88.3c8-30.3,29.7-58,61.3-79.3,91-60.7,239-60.7,329.3,0,32.1,21.3,53.4,49,61.4,79.3Z"/>
  </g>
</svg>