<?xml version="1.0" encoding="UTF-8"?>
<svg id="Layer_1" data-name="Layer 1" xmlns="http://www.w3.org/2000/svg" viewBox="0 0 800 800">
  <defs>
    <style>
      .cls-1 {
        fill: #003049;
      }
    </style>
  </defs>
  <path class="cls-1" d="m400,794.75l-81.74-89.71-115.64,36.83-25.93-118.56-118.56-25.93,36.82-115.64L5.25,400l89.71-81.74-36.82-115.64,118.56-25.93,25.93-118.56,115.64,36.82L400,5.25l81.74,89.71,115.64-36.82,25.93,118.56,118.56,25.93-36.83,115.64,89.71,81.74-89.71,81.74,36.83,115.64-118.56,25.93-25.93,118.56-115.64-36.83-81.74,89.71Zm-76.2-110.36l76.2,83.64,76.2-83.64,107.81,34.33,24.17-110.53,110.53-24.17-34.33-107.81,83.64-76.2-83.64-76.2,34.33-107.81-110.53-24.17-24.17-110.53-107.81,34.33-76.2-83.64-76.2,83.64-107.81-34.33-24.17,110.53-110.53,24.17,34.33,107.81-83.64,76.2,83.64,76.2-34.33,107.81,110.53,24.17,24.17,110.53,107.81-34.33Z"/>
  <path class="cls-1" d="m384.51,456.43v-9.26c0-8.33.87-15.56,2.6-21.68,1.73-6.12,4.68-11.85,8.85-17.21,4.17-5.36,9.93-10.96,17.29-16.81,8.01-6.5,14.37-12.07,19.08-16.73,4.71-4.65,8.12-9.31,10.23-13.97,2.11-4.65,3.17-10.23,3.17-16.73,0-10.17-3.38-17.97-10.15-23.38-6.77-5.41-16.27-8.12-28.5-8.12-10.39,0-19.84,1.38-28.34,4.14-8.5,2.76-16.81,6.15-24.93,10.15l-11.53-25.17c9.31-4.98,19.46-9.04,30.45-12.18,10.99-3.14,23.14-4.71,36.46-4.71,21.44,0,38.05,5.25,49.86,15.75,11.8,10.5,17.7,24.68,17.7,42.55,0,9.85-1.57,18.27-4.71,25.25-3.14,6.98-7.66,13.4-13.56,19.24-5.9,5.85-13.02,12.02-21.36,18.51-6.93,5.74-12.26,10.75-16,15.02-3.73,4.28-6.28,8.61-7.63,12.99-1.36,4.38-2.03,9.66-2.03,15.83v6.5h-26.96Zm-6.66,50.67c0-8.23,2.03-14.05,6.09-17.46,4.06-3.41,9.23-5.12,15.51-5.12,5.85,0,10.88,1.71,15.1,5.12,4.22,3.41,6.33,9.23,6.33,17.46s-2.11,13.86-6.33,17.54c-4.22,3.68-9.26,5.52-15.1,5.52-6.28,0-11.45-1.84-15.51-5.52-4.06-3.68-6.09-9.53-6.09-17.54Z"/>
</svg>